<?xml version="1.0" encoding="UTF-8" standalone="no"?>
<!-- Created with Inkscape (http://www.inkscape.org/) -->

<svg
   width="1536"
   height="512"
   viewBox="0 0 406.39999 135.46667"
   version="1.1"
   id="svg1"
   xml:space="preserve"
   inkscape:version="1.3.2 (091e20e, 2023-11-25)"
   sodipodi:docname="logoandtext.svg"
   inkscape:export-filename="logoandtext.png"
   inkscape:export-xdpi="96"
   inkscape:export-ydpi="96"
   xmlns:inkscape="http://www.inkscape.org/namespaces/inkscape"
   xmlns:sodipodi="http://sodipodi.sourceforge.net/DTD/sodipodi-0.dtd"
   xmlns:xlink="http://www.w3.org/1999/xlink"
   xmlns="http://www.w3.org/2000/svg"
   xmlns:svg="http://www.w3.org/2000/svg"><sodipodi:namedview
     id="namedview1"
     pagecolor="#ffffff"
     bordercolor="#000000"
     borderopacity="0.25"
     inkscape:showpageshadow="2"
     inkscape:pageopacity="0.0"
     inkscape:pagecheckerboard="0"
     inkscape:deskcolor="#d1d1d1"
     inkscape:document-units="mm"
     inkscape:zoom="0.22516065"
     inkscape:cx="1201.3644"
     inkscape:cy="235.38749"
     inkscape:window-width="1312"
     inkscape:window-height="449"
     inkscape:window-x="-1"
     inkscape:window-y="38"
     inkscape:window-maximized="0"
     inkscape:current-layer="layer1" /><defs
     id="defs1"><rect
       x="623.09355"
       y="137.93674"
       width="1388.8803"
       height="375.75871"
       id="rect1" /><linearGradient
       id="linearGradient41"
       inkscape:collect="always"><stop
         style="stop-color:#6bd425;stop-opacity:1;"
         offset="0"
         id="stop41" /><stop
         style="stop-color:#6bd425;stop-opacity:0;"
         offset="1"
         id="stop42" /></linearGradient><linearGradient
       id="linearGradient39"
       inkscape:collect="always"><stop
         style="stop-color:#63bf22;stop-opacity:0.57487923;"
         offset="0"
         id="stop39" /><stop
         style="stop-color:#75e626;stop-opacity:0;"
         offset="1"
         id="stop40" /></linearGradient><inkscape:path-effect
       effect="offset"
       id="path-effect39"
       is_visible="true"
       lpeversion="1.2"
       linejoin_type="miter"
       unit="mm"
       offset="-0.6"
       miter_limit="4"
       attempt_force_join="false"
       update_on_knot_move="true" /><inkscape:path-effect
       effect="offset"
       id="path-effect38"
       is_visible="true"
       lpeversion="1.2"
       linejoin_type="miter"
       unit="mm"
       offset="-0.6"
       miter_limit="4"
       attempt_force_join="false"
       update_on_knot_move="true" /><linearGradient
       inkscape:collect="always"
       xlink:href="#linearGradient39"
       id="linearGradient40"
       x1="72.1576"
       y1="40.929733"
       x2="91.258141"
       y2="25.46739"
       gradientUnits="userSpaceOnUse" /><linearGradient
       inkscape:collect="always"
       xlink:href="#linearGradient41"
       id="linearGradient42"
       x1="45.477482"
       y1="111.26823"
       x2="134.31017"
       y2="50.631596"
       gradientUnits="userSpaceOnUse" /></defs><g
     inkscape:label="Layer 1"
     inkscape:groupmode="layer"
     id="layer1"><g
       inkscape:label="Layer 1"
       id="layer1-7"
       transform="translate(-4.0717865,-1.4791248)"><path
         d="m 104.41602,31.505859 5.87304,4.898438 6.31836,5.269531 6.31836,5.267578 5.85547,4.882813 -5.12891,6.074218 -5.34179,6.328125 -5.65821,6.701172 -4.95703,5.869141 -2.65234,3.142578 -3.00586,3.558594 -5.306641,6.285156 -5.306641,6.285156 -5.306641,6.285161 -9.898437,11.72461 -0.01367,0.0156 -0.0039,0.004 C 62.250609,130.82124 37.374443,133.0717 20.648437,119.12305 3.9218823,105.17393 1.668833,80.299271 15.619141,63.574219 23.461225,54.172328 34.755544,49.344106 46.109375,49.394531 c 3.227998,0.01434 6.460195,0.42644 9.621094,1.236328 3.012771,0.771937 5.960368,1.905328 8.773437,3.41211 2.23372,1.196459 4.381753,2.63206 6.416016,4.300781 0.09356,0.07681 0.178478,0.140215 0.253906,0.203125 0.401242,0.334617 0.789705,0.681385 1.181641,1.035156 0.470073,0.424303 0.92796,0.856977 1.373047,1.298828 0.32661,0.324232 0.637644,0.659556 0.951171,0.994141 l -4.716796,5.582031 -0.300782,0.353516 -5.009765,5.93164 -0.404297,0.478516 -4.90625,5.806641 -0.609375,0.722656 -5.322266,6.298828 c -0.09783,-0.398343 -0.223087,-0.791151 -0.380859,-1.171875 -0.2737,-0.660477 -0.625138,-1.315703 -1.109375,-1.912109 -0.309362,-0.381028 -0.657127,-0.74235 -1.052735,-1.072266 -0.176646,-0.147313 -0.363958,-0.243522 -0.488281,-0.332031 -3.265669,-2.325006 -7.799477,-1.811592 -10.410156,1.318359 -2.739175,3.284002 -2.297913,8.159546 0.986328,10.898438 3.232795,2.69599 7.998123,2.298208 10.759766,-0.845703 0.01231,-0.01401 0.0683,-0.05625 0.138672,-0.140625 0.0933,-0.111858 0.08942,-0.128434 0.08984,-0.132813 l 0.002,-0.002 c 2.1e-5,-3.15e-4 0.0078,-0.01172 0.0078,-0.01172 L 60.591797,83.414062 61.75,82.042969 l 4.566406,-5.410157 0.740235,-0.876953 4.742187,-5.615234 0.564453,-0.669922 4.865235,-5.761719 0.441406,-0.523437 3.003906,-3.558594 2.654297,-3.144531 4.955078,-5.869141 5.658203,-6.701172 5.341797,-6.328125 z"
         style="fill:url(#linearGradient42);fill-opacity:1;stroke:none;stroke-width:1.32292"
         id="path38" /><path
         d="m 51.649759,48.608613 c 1.469247,0.203334 2.930786,0.487484 4.377585,0.858184 3.104264,0.795377 6.143037,1.964269 9.042968,3.517578 2.304015,1.234112 4.517656,2.714181 6.611329,4.431641 0.07531,0.06177 0.167742,0.128982 0.263671,0.208984 0.418772,0.349234 0.821104,0.711007 1.214844,1.066406 0.484301,0.43715 0.953622,0.882744 1.41211,1.337891 0.30429,0.302078 0.592945,0.614447 0.884765,0.923828 l 2.81836,-3.335938 2.654296,-3.140625 4.958985,-5.86914 5.660156,-6.699219 5.34375,-6.326172 5.130862,-6.072265 -1.00781,-0.839844 -1.470708,-1.226563 -1.47461,-1.230468 -5.902343,-4.919922 -6.955078,-5.802735 -5.865235,-4.890625 -5.152344,6.064453 -5.363281,6.3125 -5.677734,6.683594 -4.97461,5.855469 -2.662109,3.134766 -3.015625,3.548828 -5.122978,6.031737 c 1.426692,0.05079 2.852332,0.176502 4.270784,0.377657 z"
         style="fill:url(#linearGradient40);fill-opacity:1;stroke:none;stroke-width:1.32292;stroke-dasharray:none"
         id="path37" /></g><path
       d="m 720.4272,381.97367 q -8.00001,0 -11.46668,-8.00001 L 630.29376,192.64011 q -3.46667,-8.26668 -0.8,-13.60002 2.93333,-5.33334 10.66668,-5.33334 8.26667,0 11.46668,7.73334 L 722.0272,350.2403 h -4 l 71.20009,-168.80021 q 1.86667,-4.26667 4.53333,-5.86667 2.66667,-1.86667 7.20001,-1.86667 7.20001,0 9.86668,5.33334 2.93334,5.33334 0,11.73335 l -79.20009,183.20022 q -1.86667,4.00001 -4.80001,6.13334 -2.66667,1.86667 -6.40001,1.86667 z m 159.46672,1.06667 q -22.13336,0 -39.20005,-9.33334 -16.80002,-9.60002 -26.40003,-26.13337 -9.60001,-16.80002 -9.60001,-38.40005 0,-21.86669 9.06668,-38.40004 9.06668,-16.80002 25.0667,-26.13337 16.00001,-9.60001 37.06671,-9.60001 20.53336,0 35.46671,9.33334 14.93335,9.06668 22.93336,25.33337 8.00001,16.00002 8.00001,37.06671 0,4.53334 -3.20001,7.73334 -2.93333,2.93334 -8.00001,2.93334 H 821.49385 V 297.7069 h 109.8668 l -10.93335,7.73335 q -0.26666,-14.13336 -5.6,-25.33337 -5.33334,-11.20001 -15.20002,-17.60002 -9.86668,-6.40001 -23.73336,-6.40001 -15.20002,0 -26.40004,6.93334 -10.93334,6.93335 -16.80002,18.93336 -5.86667,12.00001 -5.86667,27.20003 0,15.20002 6.66668,27.20004 6.93334,11.73334 18.66668,18.66669 12.00002,6.93334 27.73337,6.93334 8.53335,0 17.60002,-3.20001 9.33335,-3.2 14.66669,-7.46667 3.73334,-2.93334 8.00001,-2.93334 4.26667,-0.26667 7.46667,2.4 4.00001,3.73334 4.26668,8.26668 0.26666,4.26667 -3.73334,7.46668 -9.06668,7.20001 -22.6667,12.00001 -13.33335,4.53334 -25.60003,4.53334 z m 221.06698,-0.8 q -5.3334,0 -9.0667,-3.46667 -3.4667,-3.73334 -3.4667,-8.80001 v -67.20008 q 0,-15.73336 -5.8666,-25.60004 -5.8667,-10.13334 -15.7334,-14.93335 -9.8667,-5.06667 -22.6667,-5.06667 -12,0 -21.6,4.80001 -9.6,4.8 -15.4667,12.80001 -5.6,8.00001 -5.6,18.40002 h -16.00003 q 0.26666,-16.80002 8.53334,-29.8667 8.26669,-13.33335 22.39999,-20.80002 14.1334,-7.73335 31.7334,-7.73335 18.6667,0 33.3334,8.00001 14.6667,7.73335 23.2,22.93336 8.5334,15.20002 8.5334,37.06672 v 67.20008 q 0,5.06667 -3.7334,8.80001 -3.4667,3.46667 -8.5333,3.46667 z m -111.7335,0 q -5.33334,0 -8.80001,-3.46667 -3.46667,-3.46667 -3.46667,-8.80001 V 248.37351 q 0,-5.60001 3.46667,-8.80001 3.46667,-3.46667 8.80001,-3.46667 5.60001,0 8.80002,3.46667 3.46668,3.2 3.46668,8.80001 v 121.60015 q 0,5.33334 -3.46668,8.80001 -3.20001,3.46667 -8.80002,3.46667 z m 223.7337,-0.26667 q -13.6,0 -24.5334,-6.66667 -10.9333,-6.93334 -17.0667,-18.40002 -6.1333,-11.73335 -6.1333,-26.6667 V 201.97345 q 0,-5.33334 3.2,-8.80001 3.4667,-3.46667 8.8,-3.46667 5.3333,0 8.8,3.46667 3.4667,3.46667 3.4667,8.80001 v 128.26683 q 0,12.00001 6.6667,19.73335 6.6666,7.73335 16.8,7.73335 h 8.2667 q 4.5333,0 7.4666,3.46667 3.2,3.46667 3.2,8.80001 0,5.33334 -4,8.80001 -3.7333,3.2 -9.8667,3.2 z m -62.1334,-119.46681 q -4.8,0 -8,-2.93334 -3.2,-2.93333 -3.2,-7.46667 0,-4.80001 3.2,-7.73335 3.2,-2.93333 8,-2.93333 h 64.2667 q 4.8,0 8,2.93333 3.2,2.93334 3.2,7.73335 0,4.53334 -3.2,7.46667 -3.2,2.93334 -8,2.93334 z m 130.1332,119.46681 q -5.6,0 -9.0667,-3.46667 -3.4666,-3.46667 -3.4666,-8.80001 V 248.37351 q 0,-5.60001 3.4666,-8.80001 3.4667,-3.46667 9.0667,-3.46667 5.3334,0 8.8,3.46667 3.4667,3.2 3.4667,8.80001 v 121.33348 q 0,5.33334 -3.4667,8.80001 -3.4666,3.46667 -8.8,3.46667 z m -0.2666,-171.20021 q -6.6667,0 -11.4667,-4.8 -4.8,-4.80001 -4.8,-11.73335 0,-6.93334 4.8,-11.46668 5.0666,-4.80001 11.7333,-4.80001 6.4,0 11.2,4.80001 5.0667,4.53334 5.0667,11.46668 0,6.93334 -4.8,11.73335 -4.8,4.8 -11.7333,4.8 z m 85.8669,119.73348 -14.9333,-16.53335 85.6001,-76.53343 q 3.4667,-3.46667 7.7333,-3.2 4.5334,0 7.7334,3.73334 3.4667,3.73333 3.2,8.26667 0,4.26668 -3.7333,7.46668 z m -10.1333,51.46673 q -5.3333,0 -8.8,-3.2 -3.2,-3.46667 -3.2,-8.80001 V 185.70677 q 0,-5.33334 3.2,-8.53335 3.4667,-3.46667 8.8,-3.46667 5.3333,0 8.5333,3.46667 3.4667,3.20001 3.4667,8.53335 v 184.26689 q 0,5.33334 -3.4667,8.80001 -3.2,3.2 -8.5333,3.2 z m 96.5335,-1.33333 q -4.0001,3.2 -8.8001,2.66667 -4.5333,-0.26667 -7.7333,-4.26667 l -56.0001,-69.06676 16.8001,-16.00002 57.3334,70.66676 q 3.2,3.73334 2.6666,8.26667 -0.2666,4.26668 -4.2666,7.73335 z m 97.8669,2.4 q -22.1334,0 -39.2001,-9.33334 -16.8,-9.60002 -26.4,-26.13337 -9.6,-16.80002 -9.6,-38.40005 0,-21.86669 9.0667,-38.40004 9.0667,-16.80002 25.0667,-26.13337 16,-9.60001 37.0667,-9.60001 20.5333,0 35.4667,9.33334 14.9334,9.06668 22.9334,25.33337 8,16.00002 8,37.06671 0,4.53334 -3.2,7.73334 -2.9334,2.93334 -8,2.93334 H 1492.4282 V 297.7069 h 109.8668 l -10.9333,7.73335 q -0.2667,-14.13336 -5.6,-25.33337 -5.3334,-11.20001 -15.2,-17.60002 -9.8667,-6.40001 -23.7334,-6.40001 -15.2,0 -26.4,6.93334 -10.9334,6.93335 -16.8001,18.93336 -5.8666,12.00001 -5.8666,27.20003 0,15.20002 6.6666,27.20004 6.9334,11.73334 18.6667,18.66669 12,6.93334 27.7334,6.93334 8.5333,0 17.6,-3.20001 9.3334,-3.2 14.6667,-7.46667 3.7333,-2.93334 8,-2.93334 4.2667,-0.26667 7.4667,2.4 4,3.73334 4.2667,8.26668 0.2666,4.26667 -3.7334,7.46668 -9.0667,7.20001 -22.6667,12.00001 -13.3333,4.53334 -25.6,4.53334 z"
       id="text1"
       style="font-size:266.667px;font-family:Comfortaa;-inkscape-font-specification:'Comfortaa, @wght=600';font-variation-settings:'wght' 600;white-space:pre;fill:#fcfcfc;stroke-width:5;fill-opacity:0.90196079"
       transform="matrix(0.26458333,0,0,0.26458333,-40.271186,20.135594)"
       aria-label="Ventike" /></g></svg>
